<svg width="56" height="47" viewBox="0 0 56 47" fill="none" xmlns="http://www.w3.org/2000/svg">
<path d="M59.681 21.2694C58.7058 20.4521 57.3725 19.9783 55.9693 19.9503C54.5661 19.9224 53.2056 20.3425 52.1819 21.12L42.0336 28.4196C42.5467 29.2208 42.8135 30.1104 42.8112 31.0129C42.8058 32.1766 42.3645 33.3117 41.5456 34.2682C40.7268 35.2246 39.5688 35.9576 38.2247 36.3702L29.6975 38.9634C29.3704 39.058 29.0106 39.0451 28.6953 38.9273C28.3799 38.8096 28.1341 38.5966 28.0105 38.3338C27.948 38.2036 27.9183 38.0646 27.923 37.925C27.9277 37.7854 27.9668 37.6479 28.038 37.5207C28.1092 37.3935 28.211 37.279 28.3376 37.1841C28.4641 37.0891 28.6128 37.0156 28.7749 36.9678L37.3021 34.3745C38.1449 34.1153 38.8707 33.6552 39.3836 33.055C39.8966 32.4548 40.1726 31.7427 40.1753 31.0129C40.1429 30.0702 39.6659 29.1734 38.8424 28.5066C38.0188 27.8397 36.9112 27.4535 35.7469 27.4271H11.1801C11.1801 27.1468 11.1119 26.8693 10.9795 26.6103C10.847 26.3514 10.6529 26.1161 10.4081 25.9179C10.1633 25.7197 9.87275 25.5625 9.55293 25.4552C9.23311 25.3479 8.89032 25.2927 8.54413 25.2927H3.27227C2.92609 25.2927 2.5833 25.3479 2.26348 25.4552C1.94366 25.5625 1.65307 25.7197 1.4083 25.9179C1.16353 26.1161 0.969378 26.3514 0.836928 26.6103C0.704477 26.8693 0.636321 27.1468 0.636353 27.4271V44.5022C0.636304 45.0682 0.913986 45.6111 1.40831 46.0113C1.90264 46.4116 2.57313 46.6365 3.27227 46.6366H8.54413C9.24328 46.6365 9.91377 46.4116 10.4081 46.0113C10.9024 45.6111 11.1801 45.0682 11.1801 44.5022H16.5178L18.1653 45.0464C23.2779 46.759 28.9342 47.0985 34.3029 46.0151C39.6715 44.9317 44.4692 42.4825 47.9908 39.0275L59.9974 27.2777C60.8735 26.4224 61.3261 25.3343 61.2677 24.2242C61.2092 23.1142 60.6438 22.0612 59.681 21.2694ZM15.1339 42.3678H11.1801V29.5615H15.1339V42.3678ZM38.0966 -2.45431C35.4961 -2.45997 32.9724 -1.7409 30.9495 -0.417895C28.9266 -1.7409 26.4029 -2.45997 23.8024 -2.45431C20.7696 -2.44818 17.8637 -1.46842 15.722 0.270038C13.5804 2.0085 12.3779 4.3637 12.3783 6.81901C12.3783 16.5759 29.5542 24.8018 30.2853 25.1478C30.4871 25.2427 30.7162 25.2927 30.9495 25.2927C31.1828 25.2927 31.4119 25.2427 31.6136 25.1478C32.3447 24.8018 49.5207 16.5759 49.5207 6.81901C49.5211 4.3637 48.3186 2.00849 46.1769 0.270034C44.0353 -1.46842 41.1294 -2.44818 38.0966 -2.45431ZM35.7608 17.4564C35.5197 17.6166 35.2154 17.7011 34.9037 17.6943C34.638 17.6926 34.3792 17.6256 34.1615 17.5023C33.9438 17.3789 33.7775 17.205 33.6846 17.0035C33.5917 16.802 33.5765 16.5824 33.6411 16.3737C33.7056 16.165 33.8469 15.9772 34.0462 15.8349C38.9255 12.451 41.6129 9.24833 41.6129 6.81901C41.6157 6.06115 41.247 5.33336 40.5878 4.79528C39.9286 4.25721 39.0327 3.9528 38.0966 3.94885C37.747 3.94885 37.4117 3.83641 37.1645 3.63627C36.9173 3.43613 36.7784 3.16469 36.7784 2.88165C36.7784 2.59861 36.9173 2.32717 37.1645 2.12703C37.4117 1.9269 37.747 1.81446 38.0966 1.81446C39.7316 1.81903 41.2976 2.34852 42.451 3.28674C43.6044 4.22497 44.2509 5.4953 44.2488 6.81901C44.2488 10.7448 39.6335 14.7697 35.7608 17.4564Z" fill="white"/>
</svg>
