<svg width="28" height="26" viewBox="0 0 28 26" fill="none" xmlns="http://www.w3.org/2000/svg">
<g clip-path="url(#clip0_33_35)">
<path d="M29.777 10.2409C29.3062 9.84739 28.6626 9.61927 27.9852 9.60581C27.3077 9.59234 26.651 9.79463 26.1568 10.169L21.2576 13.6836C21.5053 14.0693 21.6341 14.4977 21.633 14.9322C21.6304 15.4925 21.4173 16.039 21.022 16.4996C20.6267 16.9601 20.0677 17.313 19.4188 17.5116L15.3022 18.7603C15.1443 18.8058 14.9706 18.7996 14.8184 18.7429C14.6661 18.6862 14.5475 18.5836 14.4878 18.4571C14.4576 18.3944 14.4433 18.3275 14.4456 18.2603C14.4478 18.193 14.4667 18.1269 14.5011 18.0656C14.5354 18.0043 14.5846 17.9492 14.6457 17.9035C14.7068 17.8578 14.7786 17.8224 14.8568 17.7994L18.9734 16.5508C19.3803 16.426 19.7307 16.2044 19.9783 15.9154C20.2259 15.6265 20.3592 15.2836 20.3605 14.9322C20.3448 14.4783 20.1146 14.0466 19.717 13.7255C19.3194 13.4044 18.7847 13.2184 18.2226 13.2057H6.36277C6.36278 13.0708 6.32988 12.9371 6.26594 12.8125C6.202 12.6878 6.10827 12.5745 5.9901 12.4791C5.87194 12.3837 5.73165 12.308 5.57726 12.2563C5.42286 12.2047 5.25738 12.1781 5.09025 12.178H2.54522C2.37809 12.1781 2.21261 12.2047 2.05821 12.2563C1.90382 12.308 1.76353 12.3837 1.64537 12.4791C1.5272 12.5745 1.43348 12.6878 1.36953 12.8125C1.30559 12.9371 1.27269 13.0708 1.27271 13.2057V21.4271C1.27268 21.6996 1.40673 21.961 1.64538 22.1537C1.88402 22.3464 2.2077 22.4547 2.54522 22.4547H5.09025C5.42777 22.4547 5.75146 22.3464 5.9901 22.1537C6.22874 21.961 6.3628 21.6996 6.36277 21.4271H8.93962L9.73494 21.6891C12.2031 22.5137 14.9337 22.6771 17.5255 22.1555C20.1173 21.6338 22.4334 20.4546 24.1335 18.7911L29.9298 13.1338C30.3527 12.722 30.5712 12.1981 30.543 11.6636C30.5148 11.1291 30.2418 10.6221 29.777 10.2409ZM8.27154 20.3994H6.36277V14.2334H8.27154V20.3994ZM19.357 -1.18162C18.1015 -1.18435 16.8832 -0.83813 15.9066 -0.201127C14.93 -0.83813 13.7117 -1.18435 12.4563 -1.18162C10.9922 -1.17867 9.58935 -0.706936 8.55545 0.1301C7.52154 0.967135 6.94103 2.10112 6.94124 3.28331C6.94124 7.98107 15.2331 11.9417 15.586 12.1083C15.6834 12.154 15.794 12.178 15.9066 12.178C16.0193 12.178 16.1299 12.154 16.2272 12.1083C16.5802 11.9417 24.872 7.98106 24.872 3.28331C24.8722 2.10112 24.2917 0.967133 23.2578 0.130098C22.2239 -0.706938 20.8211 -1.17867 19.357 -1.18162ZM18.2293 8.40502C18.113 8.48215 17.966 8.52282 17.8155 8.51955C17.6873 8.51874 17.5623 8.4865 17.4573 8.42711C17.3522 8.36772 17.2719 8.28397 17.227 8.18694C17.1822 8.08992 17.1748 7.98418 17.206 7.88371C17.2372 7.78325 17.3054 7.69279 17.4016 7.6243C19.7571 5.99499 21.0545 4.45298 21.0545 3.28331C21.0558 2.91841 20.8779 2.56799 20.5596 2.30892C20.2414 2.04985 19.8089 1.90328 19.357 1.90138C19.1882 1.90138 19.0263 1.84724 18.907 1.75088C18.7876 1.65452 18.7206 1.52382 18.7206 1.38754C18.7206 1.25127 18.7876 1.12057 18.907 1.02421C19.0263 0.927846 19.1882 0.87371 19.357 0.87371C20.1463 0.875911 20.9023 1.13085 21.4591 1.58259C22.0159 2.03433 22.328 2.64597 22.327 3.28331C22.327 5.17352 20.0989 7.11141 18.2293 8.40502Z" fill="#A37FEE"/>
</g>
<defs>
<clipPath id="clip0_33_35">
<rect width="28" height="26" fill="white"/>
</clipPath>
</defs>
</svg>
